<svg xmlns="http://www.w3.org/2000/svg" viewBox="0 0 640 300" width="640" role="img" aria-label="Causal attention: each position sees only itself and earlier positions">
  <text x="160.0" y="30.0" class="tx" font-size="12.5" text-anchor="middle" dominant-baseline="middle">attention scores QKᵀ / √d (rows: query, columns: key)</text>
  <text x="54.0" y="75.0" class="mu" font-size="12" text-anchor="middle" dominant-baseline="middle">I</text>
  <text x="85.0" y="48.0" class="mu" font-size="12" text-anchor="middle" dominant-baseline="middle">I</text>
  <rect x="71.0" y="61.0" width="28.0" height="28.0" rx="3" class="blue" stroke-width="0.8"/>
  <rect x="101.0" y="61.0" width="28.0" height="28.0" rx="3" class="gray" stroke-width="0.8"/>
  <text x="115.0" y="75.0" class="mu" font-size="10" text-anchor="middle" dominant-baseline="middle">−∞</text>
  <rect x="131.0" y="61.0" width="28.0" height="28.0" rx="3" class="gray" stroke-width="0.8"/>
  <text x="145.0" y="75.0" class="mu" font-size="10" text-anchor="middle" dominant-baseline="middle">−∞</text>
  <rect x="161.0" y="61.0" width="28.0" height="28.0" rx="3" class="gray" stroke-width="0.8"/>
  <text x="175.0" y="75.0" class="mu" font-size="10" text-anchor="middle" dominant-baseline="middle">−∞</text>
  <rect x="191.0" y="61.0" width="28.0" height="28.0" rx="3" class="gray" stroke-width="0.8"/>
  <text x="205.0" y="75.0" class="mu" font-size="10" text-anchor="middle" dominant-baseline="middle">−∞</text>
  <rect x="221.0" y="61.0" width="28.0" height="28.0" rx="3" class="gray" stroke-width="0.8"/>
  <text x="235.0" y="75.0" class="mu" font-size="10" text-anchor="middle" dominant-baseline="middle">−∞</text>
  <text x="54.0" y="105.0" class="mu" font-size="12" text-anchor="middle" dominant-baseline="middle">love</text>
  <text x="115.0" y="48.0" class="mu" font-size="12" text-anchor="middle" dominant-baseline="middle">love</text>
  <rect x="71.0" y="91.0" width="28.0" height="28.0" rx="3" class="blue" stroke-width="0.8"/>
  <rect x="101.0" y="91.0" width="28.0" height="28.0" rx="3" class="blue" stroke-width="0.8"/>
  <rect x="131.0" y="91.0" width="28.0" height="28.0" rx="3" class="gray" stroke-width="0.8"/>
  <text x="145.0" y="105.0" class="mu" font-size="10" text-anchor="middle" dominant-baseline="middle">−∞</text>
  <rect x="161.0" y="91.0" width="28.0" height="28.0" rx="3" class="gray" stroke-width="0.8"/>
  <text x="175.0" y="105.0" class="mu" font-size="10" text-anchor="middle" dominant-baseline="middle">−∞</text>
  <rect x="191.0" y="91.0" width="28.0" height="28.0" rx="3" class="gray" stroke-width="0.8"/>
  <text x="205.0" y="105.0" class="mu" font-size="10" text-anchor="middle" dominant-baseline="middle">−∞</text>
  <rect x="221.0" y="91.0" width="28.0" height="28.0" rx="3" class="gray" stroke-width="0.8"/>
  <text x="235.0" y="105.0" class="mu" font-size="10" text-anchor="middle" dominant-baseline="middle">−∞</text>
  <text x="54.0" y="135.0" class="mu" font-size="12" text-anchor="middle" dominant-baseline="middle">Bei</text>
  <text x="145.0" y="48.0" class="mu" font-size="12" text-anchor="middle" dominant-baseline="middle">Bei</text>
  <rect x="71.0" y="121.0" width="28.0" height="28.0" rx="3" class="blue" stroke-width="0.8"/>
  <rect x="101.0" y="121.0" width="28.0" height="28.0" rx="3" class="blue" stroke-width="0.8"/>
  <rect x="131.0" y="121.0" width="28.0" height="28.0" rx="3" class="blue" stroke-width="0.8"/>
  <rect x="161.0" y="121.0" width="28.0" height="28.0" rx="3" class="gray" stroke-width="0.8"/>
  <text x="175.0" y="135.0" class="mu" font-size="10" text-anchor="middle" dominant-baseline="middle">−∞</text>
  <rect x="191.0" y="121.0" width="28.0" height="28.0" rx="3" class="gray" stroke-width="0.8"/>
  <text x="205.0" y="135.0" class="mu" font-size="10" text-anchor="middle" dominant-baseline="middle">−∞</text>
  <rect x="221.0" y="121.0" width="28.0" height="28.0" rx="3" class="gray" stroke-width="0.8"/>
  <text x="235.0" y="135.0" class="mu" font-size="10" text-anchor="middle" dominant-baseline="middle">−∞</text>
  <text x="54.0" y="165.0" class="mu" font-size="12" text-anchor="middle" dominant-baseline="middle">jing</text>
  <text x="175.0" y="48.0" class="mu" font-size="12" text-anchor="middle" dominant-baseline="middle">jing</text>
  <rect x="71.0" y="151.0" width="28.0" height="28.0" rx="3" class="blue" stroke-width="0.8"/>
  <rect x="101.0" y="151.0" width="28.0" height="28.0" rx="3" class="blue" stroke-width="0.8"/>
  <rect x="131.0" y="151.0" width="28.0" height="28.0" rx="3" class="blue" stroke-width="0.8"/>
  <rect x="161.0" y="151.0" width="28.0" height="28.0" rx="3" class="blue" stroke-width="0.8"/>
  <rect x="191.0" y="151.0" width="28.0" height="28.0" rx="3" class="gray" stroke-width="0.8"/>
  <text x="205.0" y="165.0" class="mu" font-size="10" text-anchor="middle" dominant-baseline="middle">−∞</text>
  <rect x="221.0" y="151.0" width="28.0" height="28.0" rx="3" class="gray" stroke-width="0.8"/>
  <text x="235.0" y="165.0" class="mu" font-size="10" text-anchor="middle" dominant-baseline="middle">−∞</text>
  <text x="54.0" y="195.0" class="mu" font-size="12" text-anchor="middle" dominant-baseline="middle">Tian</text>
  <text x="205.0" y="48.0" class="mu" font-size="12" text-anchor="middle" dominant-baseline="middle">Tian</text>
  <rect x="71.0" y="181.0" width="28.0" height="28.0" rx="3" class="blue" stroke-width="0.8"/>
  <rect x="101.0" y="181.0" width="28.0" height="28.0" rx="3" class="blue" stroke-width="0.8"/>
  <rect x="131.0" y="181.0" width="28.0" height="28.0" rx="3" class="blue" stroke-width="0.8"/>
  <rect x="161.0" y="181.0" width="28.0" height="28.0" rx="3" class="blue" stroke-width="0.8"/>
  <rect x="191.0" y="181.0" width="28.0" height="28.0" rx="3" class="blue" stroke-width="0.8"/>
  <rect x="221.0" y="181.0" width="28.0" height="28.0" rx="3" class="gray" stroke-width="0.8"/>
  <text x="235.0" y="195.0" class="mu" font-size="10" text-anchor="middle" dominant-baseline="middle">−∞</text>
  <text x="54.0" y="225.0" class="mu" font-size="12" text-anchor="middle" dominant-baseline="middle">an</text>
  <text x="235.0" y="48.0" class="mu" font-size="12" text-anchor="middle" dominant-baseline="middle">an</text>
  <rect x="71.0" y="211.0" width="28.0" height="28.0" rx="3" class="blue" stroke-width="0.8"/>
  <rect x="101.0" y="211.0" width="28.0" height="28.0" rx="3" class="blue" stroke-width="0.8"/>
  <rect x="131.0" y="211.0" width="28.0" height="28.0" rx="3" class="blue" stroke-width="0.8"/>
  <rect x="161.0" y="211.0" width="28.0" height="28.0" rx="3" class="blue" stroke-width="0.8"/>
  <rect x="191.0" y="211.0" width="28.0" height="28.0" rx="3" class="blue" stroke-width="0.8"/>
  <rect x="221.0" y="211.0" width="28.0" height="28.0" rx="3" class="blue" stroke-width="0.8"/>
  <text x="160.0" y="262.0" class="mu" font-size="11.5" text-anchor="middle" dominant-baseline="middle">upper triangle set to −∞, 0 after softmax</text>
  <line x1="270.0" y1="150.0" x2="315.0" y2="150.0" class="ln" stroke-width="1.4"/>
  <polygon points="320.0,150.0 313.9,153.4 313.9,146.6" class="ah"/>
  <text x="295.0" y="126.0" class="mu" font-size="11.5" text-anchor="middle" dominant-baseline="middle"><tspan x="295.0" dy="-7.1">softmax</tspan><tspan x="295.0" dy="14.3">(per row)</tspan></text>
  <rect x="330.0" y="100.0" width="130.0" height="100.0" rx="7" class="green" stroke-width="1.3"/>
  <text x="395.0" y="150.0" class="tx" font-size="13" text-anchor="middle" dominant-baseline="middle"><tspan x="395.0" dy="-16.1">each row is a</tspan><tspan x="395.0" dy="16.1">probability distribution</tspan><tspan x="395.0" dy="16.1">(sums to 1)</tspan></text>
  <line x1="460.0" y1="150.0" x2="505.0" y2="150.0" class="ln" stroke-width="1.4"/>
  <polygon points="510.0,150.0 503.9,153.4 503.9,146.6" class="ah"/>
  <text x="485.0" y="138.0" class="mu" font-size="11.5" text-anchor="middle" dominant-baseline="middle">× V</text>
  <rect x="520.0" y="100.0" width="120.0" height="100.0" rx="7" class="orange" stroke-width="1.3"/>
  <text x="580.0" y="150.0" class="tx" font-size="13" text-anchor="middle" dominant-baseline="middle"><tspan x="580.0" dy="-16.1">output:</tspan><tspan x="580.0" dy="16.1">weighted average</tspan><tspan x="580.0" dy="16.1">of V per row</tspan></text>
</svg>
