<svg xmlns="http://www.w3.org/2000/svg" viewBox="0 0 680 310" width="680" role="img" aria-label="Ring Attention：query 不动，KV 沿环传一圈">
  <text x="40.0" y="30.0" class="mu" font-size="11.5" text-anchor="start" dominant-baseline="middle">每张卡只存 1/P 的 query；KV 块每一步往右边传一格，P 步之后每段 query 都见过全部 KV</text>
  <rect x="40.0" y="60.0" width="120.0" height="44.0" rx="5" class="blue" stroke-width="1.3"/>
  <text x="100.0" y="82.0" class="tx" font-size="11.5" text-anchor="middle" dominant-baseline="middle"><tspan x="100.0" dy="-7.1">卡 0</tspan><tspan x="100.0" dy="14.3">query 块 0</tspan></text>
  <rect x="200.0" y="68.0" width="94.0" height="28.0" rx="4" class="orange" stroke-width="1.3"/>
  <text x="247.0" y="82.0" class="tx" font-size="11" text-anchor="middle" dominant-baseline="middle">KV 块 0</text>
  <line x1="294.0" y1="82.0" x2="305.0" y2="82.0" class="ln" stroke-width="1.2"/>
  <polygon points="310.0,82.0 303.9,85.4 303.9,78.6" class="ah"/>
  <rect x="310.0" y="68.0" width="94.0" height="28.0" rx="4" class="gray" stroke-width="1.3"/>
  <text x="357.0" y="82.0" class="tx" font-size="11" text-anchor="middle" dominant-baseline="middle">KV 块 3</text>
  <line x1="404.0" y1="82.0" x2="415.0" y2="82.0" class="ln" stroke-width="1.2"/>
  <polygon points="420.0,82.0 413.9,85.4 413.9,78.6" class="ah"/>
  <rect x="420.0" y="68.0" width="94.0" height="28.0" rx="4" class="gray" stroke-width="1.3"/>
  <text x="467.0" y="82.0" class="tx" font-size="11" text-anchor="middle" dominant-baseline="middle">KV 块 2</text>
  <line x1="514.0" y1="82.0" x2="525.0" y2="82.0" class="ln" stroke-width="1.2"/>
  <polygon points="530.0,82.0 523.9,85.4 523.9,78.6" class="ah"/>
  <rect x="530.0" y="68.0" width="94.0" height="28.0" rx="4" class="gray" stroke-width="1.3"/>
  <text x="577.0" y="82.0" class="tx" font-size="11" text-anchor="middle" dominant-baseline="middle">KV 块 1</text>
  <rect x="40.0" y="120.0" width="120.0" height="44.0" rx="5" class="blue" stroke-width="1.3"/>
  <text x="100.0" y="142.0" class="tx" font-size="11.5" text-anchor="middle" dominant-baseline="middle"><tspan x="100.0" dy="-7.1">卡 1</tspan><tspan x="100.0" dy="14.3">query 块 1</tspan></text>
  <rect x="200.0" y="128.0" width="94.0" height="28.0" rx="4" class="orange" stroke-width="1.3"/>
  <text x="247.0" y="142.0" class="tx" font-size="11" text-anchor="middle" dominant-baseline="middle">KV 块 1</text>
  <line x1="294.0" y1="142.0" x2="305.0" y2="142.0" class="ln" stroke-width="1.2"/>
  <polygon points="310.0,142.0 303.9,145.4 303.9,138.6" class="ah"/>
  <rect x="310.0" y="128.0" width="94.0" height="28.0" rx="4" class="gray" stroke-width="1.3"/>
  <text x="357.0" y="142.0" class="tx" font-size="11" text-anchor="middle" dominant-baseline="middle">KV 块 0</text>
  <line x1="404.0" y1="142.0" x2="415.0" y2="142.0" class="ln" stroke-width="1.2"/>
  <polygon points="420.0,142.0 413.9,145.4 413.9,138.6" class="ah"/>
  <rect x="420.0" y="128.0" width="94.0" height="28.0" rx="4" class="gray" stroke-width="1.3"/>
  <text x="467.0" y="142.0" class="tx" font-size="11" text-anchor="middle" dominant-baseline="middle">KV 块 3</text>
  <line x1="514.0" y1="142.0" x2="525.0" y2="142.0" class="ln" stroke-width="1.2"/>
  <polygon points="530.0,142.0 523.9,145.4 523.9,138.6" class="ah"/>
  <rect x="530.0" y="128.0" width="94.0" height="28.0" rx="4" class="gray" stroke-width="1.3"/>
  <text x="577.0" y="142.0" class="tx" font-size="11" text-anchor="middle" dominant-baseline="middle">KV 块 2</text>
  <rect x="40.0" y="180.0" width="120.0" height="44.0" rx="5" class="blue" stroke-width="1.3"/>
  <text x="100.0" y="202.0" class="tx" font-size="11.5" text-anchor="middle" dominant-baseline="middle"><tspan x="100.0" dy="-7.1">卡 2</tspan><tspan x="100.0" dy="14.3">query 块 2</tspan></text>
  <rect x="200.0" y="188.0" width="94.0" height="28.0" rx="4" class="orange" stroke-width="1.3"/>
  <text x="247.0" y="202.0" class="tx" font-size="11" text-anchor="middle" dominant-baseline="middle">KV 块 2</text>
  <line x1="294.0" y1="202.0" x2="305.0" y2="202.0" class="ln" stroke-width="1.2"/>
  <polygon points="310.0,202.0 303.9,205.4 303.9,198.6" class="ah"/>
  <rect x="310.0" y="188.0" width="94.0" height="28.0" rx="4" class="gray" stroke-width="1.3"/>
  <text x="357.0" y="202.0" class="tx" font-size="11" text-anchor="middle" dominant-baseline="middle">KV 块 1</text>
  <line x1="404.0" y1="202.0" x2="415.0" y2="202.0" class="ln" stroke-width="1.2"/>
  <polygon points="420.0,202.0 413.9,205.4 413.9,198.6" class="ah"/>
  <rect x="420.0" y="188.0" width="94.0" height="28.0" rx="4" class="gray" stroke-width="1.3"/>
  <text x="467.0" y="202.0" class="tx" font-size="11" text-anchor="middle" dominant-baseline="middle">KV 块 0</text>
  <line x1="514.0" y1="202.0" x2="525.0" y2="202.0" class="ln" stroke-width="1.2"/>
  <polygon points="530.0,202.0 523.9,205.4 523.9,198.6" class="ah"/>
  <rect x="530.0" y="188.0" width="94.0" height="28.0" rx="4" class="gray" stroke-width="1.3"/>
  <text x="577.0" y="202.0" class="tx" font-size="11" text-anchor="middle" dominant-baseline="middle">KV 块 3</text>
  <rect x="40.0" y="240.0" width="120.0" height="44.0" rx="5" class="blue" stroke-width="1.3"/>
  <text x="100.0" y="262.0" class="tx" font-size="11.5" text-anchor="middle" dominant-baseline="middle"><tspan x="100.0" dy="-7.1">卡 3</tspan><tspan x="100.0" dy="14.3">query 块 3</tspan></text>
  <rect x="200.0" y="248.0" width="94.0" height="28.0" rx="4" class="orange" stroke-width="1.3"/>
  <text x="247.0" y="262.0" class="tx" font-size="11" text-anchor="middle" dominant-baseline="middle">KV 块 3</text>
  <line x1="294.0" y1="262.0" x2="305.0" y2="262.0" class="ln" stroke-width="1.2"/>
  <polygon points="310.0,262.0 303.9,265.4 303.9,258.6" class="ah"/>
  <rect x="310.0" y="248.0" width="94.0" height="28.0" rx="4" class="gray" stroke-width="1.3"/>
  <text x="357.0" y="262.0" class="tx" font-size="11" text-anchor="middle" dominant-baseline="middle">KV 块 2</text>
  <line x1="404.0" y1="262.0" x2="415.0" y2="262.0" class="ln" stroke-width="1.2"/>
  <polygon points="420.0,262.0 413.9,265.4 413.9,258.6" class="ah"/>
  <rect x="420.0" y="248.0" width="94.0" height="28.0" rx="4" class="gray" stroke-width="1.3"/>
  <text x="467.0" y="262.0" class="tx" font-size="11" text-anchor="middle" dominant-baseline="middle">KV 块 1</text>
  <line x1="514.0" y1="262.0" x2="525.0" y2="262.0" class="ln" stroke-width="1.2"/>
  <polygon points="530.0,262.0 523.9,265.4 523.9,258.6" class="ah"/>
  <rect x="530.0" y="248.0" width="94.0" height="28.0" rx="4" class="gray" stroke-width="1.3"/>
  <text x="577.0" y="262.0" class="tx" font-size="11" text-anchor="middle" dominant-baseline="middle">KV 块 0</text>
  <text x="247.0" y="52.0" class="mu" font-size="11" text-anchor="middle" dominant-baseline="middle">第 1 步</text>
  <text x="357.0" y="52.0" class="mu" font-size="11" text-anchor="middle" dominant-baseline="middle">第 2 步</text>
  <text x="467.0" y="52.0" class="mu" font-size="11" text-anchor="middle" dominant-baseline="middle">第 3 步</text>
  <text x="577.0" y="52.0" class="mu" font-size="11" text-anchor="middle" dominant-baseline="middle">第 4 步</text>
  <text x="40.0" y="286.0" class="mu" font-size="11.5" text-anchor="start" dominant-baseline="middle"><tspan x="40.0" dy="-7.1">每一步算出的是「这段 query 对某一块 KV」的部分注意力，用 log-sum-exp 合并，</tspan><tspan x="40.0" dy="14.3">和 FlashAttention 的 online softmax 是同一个公式；网络上传的只有 KV。</tspan></text>
</svg>
